<svg width="25" height="20" viewBox="0 0 25 20" fill="none" xmlns="http://www.w3.org/2000/svg">
<path d="M16.0388 0C15.0444 0.00021237 14.0908 0.395402 13.3878 1.09864L6.25097 8.23546C5.45186 9.03473 5.00293 10.1187 5.00293 11.2489C5.00293 12.3792 5.45186 13.4631 6.25097 14.2624L10.7405 18.752C11.5398 19.5511 12.6238 20 13.754 20C14.8842 20 15.9682 19.5511 16.7675 18.752L23.9043 11.6151C24.6075 10.9121 25.0027 9.95853 25.0029 8.96414V3.74964C25.0029 2.75517 24.6079 1.80144 23.9047 1.09824C23.2015 0.39505 22.2478 0 21.2533 0H16.0388ZM18.7535 4.99952H18.766C19.0975 5.00118 19.4148 5.13445 19.648 5.37002C19.8812 5.60559 20.0113 5.92416 20.0097 6.25565C20.008 6.58714 19.8747 6.90439 19.6392 7.13762C19.4036 7.37084 19.085 7.50094 18.7535 7.49928C18.422 7.49928 18.1041 7.3676 17.8697 7.1332C17.6353 6.8988 17.5036 6.58089 17.5036 6.2494C17.5036 5.91791 17.6353 5.6 17.8697 5.3656C18.1041 5.13121 18.422 4.99952 18.7535 4.99952Z" fill="white"/>
<path d="M9.63817 0.366192C9.40378 0.131876 9.08593 0.000244141 8.7545 0.000244141C8.42308 0.000244141 8.10523 0.131876 7.87084 0.366192L2.13014 6.10564C0.76622 7.4698 -2.86102e-06 9.31986 -2.86102e-06 11.2489C-2.86102e-06 13.1779 0.76622 15.028 2.13014 16.3922L4.11995 18.382C4.35568 18.6096 4.6714 18.7356 4.99912 18.7328C5.32683 18.7299 5.64032 18.5985 5.87205 18.3667C6.10379 18.135 6.23524 17.8215 6.23809 17.4938C6.24093 17.1661 6.11495 16.8504 5.88728 16.6146L3.89747 14.6248C3.00218 13.7294 2.49922 12.5151 2.49922 11.2489C2.49922 9.9827 3.00218 8.76836 3.89747 7.87297L9.63692 2.13352C9.87124 1.89914 10.0029 1.58128 10.0029 1.24986C10.0029 0.918434 9.87249 0.60058 9.63817 0.366192Z" fill="white"/>
</svg>
