<svg width="28" height="28" viewBox="0 0 28 28" fill="none" xmlns="http://www.w3.org/2000/svg">
<path d="M13.93 22.4C14.42 22.4 14.8344 22.2306 15.1732 21.8918C15.512 21.553 15.6809 21.1391 15.68 20.65C15.6791 20.1609 15.5101 19.7465 15.1732 19.4068C14.8363 19.0671 14.4219 18.8981 13.93 18.9C13.4381 18.9019 13.0242 19.0713 12.6882 19.4082C12.3522 19.7451 12.1828 20.1591 12.18 20.65C12.1772 21.1409 12.3466 21.5553 12.6882 21.8932C13.0298 22.2311 13.4437 22.4 13.93 22.4ZM14 28C12.0633 28 10.2433 27.6323 8.54 26.8968C6.83666 26.1613 5.355 25.1641 4.095 23.905C2.835 22.6459 1.83773 21.1643 1.1032 19.46C0.368668 17.7557 0.000935105 15.9357 1.77215e-06 14C-0.000931561 12.0643 0.366802 10.2443 1.1032 8.54C1.8396 6.83573 2.83687 5.35407 4.095 4.095C5.35313 2.83593 6.8348 1.83867 8.54 1.1032C10.2452 0.367733 12.0652 0 14 0C15.9348 0 17.7548 0.367733 19.46 1.1032C21.1652 1.83867 22.6469 2.83593 23.905 4.095C25.1631 5.35407 26.1609 6.83573 26.8982 8.54C27.6355 10.2443 28.0028 12.0643 28 14C27.9972 15.9357 27.6294 17.7557 26.8968 19.46C26.1641 21.1643 25.1669 22.6459 23.905 23.905C22.6431 25.1641 21.1615 26.1618 19.46 26.8982C17.7585 27.6346 15.9385 28.0019 14 28ZM14 25.2C17.1267 25.2 19.775 24.115 21.945 21.945C24.115 19.775 25.2 17.1267 25.2 14C25.2 10.8733 24.115 8.225 21.945 6.055C19.775 3.885 17.1267 2.8 14 2.8C10.8733 2.8 8.225 3.885 6.055 6.055C3.885 8.225 2.8 10.8733 2.8 14C2.8 17.1267 3.885 19.775 6.055 21.945C8.225 24.115 10.8733 25.2 14 25.2ZM14.14 7.98C14.7233 7.98 15.2311 8.16667 15.6632 8.54C16.0953 8.91333 16.3109 9.38 16.31 9.94C16.31 10.4533 16.1527 10.9083 15.8382 11.305C15.5237 11.7017 15.1676 12.075 14.77 12.425C14.2333 12.8917 13.7611 13.405 13.3532 13.965C12.9453 14.525 12.7409 15.155 12.74 15.855C12.74 16.1817 12.8627 16.4561 13.1082 16.6782C13.3537 16.9003 13.6393 17.0109 13.965 17.01C14.315 17.01 14.6127 16.8933 14.8582 16.66C15.1037 16.4267 15.2609 16.135 15.33 15.785C15.4233 15.295 15.6333 14.8577 15.96 14.4732C16.2867 14.0887 16.6367 13.7209 17.01 13.37C17.5467 12.8567 18.0077 12.2967 18.3932 11.69C18.7787 11.0833 18.9709 10.4067 18.97 9.66C18.97 8.47 18.4861 7.49606 17.5182 6.7382C16.5503 5.98033 15.4243 5.60093 14.14 5.6C13.2533 5.6 12.4077 5.78667 11.6032 6.16C10.7987 6.53333 10.1859 7.105 9.765 7.875C9.60166 8.155 9.5494 8.45273 9.6082 8.7682C9.667 9.08366 9.82426 9.3226 10.08 9.485C10.4067 9.67166 10.745 9.73 11.095 9.66C11.445 9.59 11.7367 9.39166 11.97 9.065C12.2267 8.715 12.5477 8.44666 12.9332 8.26C13.3187 8.07333 13.7209 7.98 14.14 7.98Z" fill="#FFF7F7"/>
</svg>
