<svg width="20" height="25" viewBox="0 0 20 25" fill="none" xmlns="http://www.w3.org/2000/svg">
<path fill-rule="evenodd" clip-rule="evenodd" d="M7.25793 0.224437C7.50054 0.0825502 7.77675 0.00527202 8.0592 0.000260323C8.34165 -0.00475138 8.62053 0.0626773 8.86821 0.195865C16.1308 3.50311 20.2422 10.3712 19.989 16.1142C19.8797 18.5268 18.9998 20.7608 17.293 22.3912C15.5844 24.0234 13.1307 24.977 10.0249 24.9823C8.7697 25.0585 7.51161 24.8881 6.32444 24.4813C5.13726 24.0745 4.0449 23.4394 3.1114 22.6132C2.17791 21.787 1.42208 20.7865 0.888236 19.6702C0.354396 18.5539 0.0532922 17.3443 0.00258395 16.1124V16.0981C-0.0344934 14.6701 0.328058 13.2594 1.0509 12.019C1.77374 10.7787 2.82927 9.7561 4.10296 9.0622C4.2136 9.00199 4.33584 8.96503 4.46186 8.9537C4.58788 8.94238 4.71493 8.95692 4.8349 8.9964C4.95487 9.03588 5.06513 9.09945 5.15865 9.18303C5.25217 9.26661 5.3269 9.36839 5.37806 9.48186C5.82121 10.4676 6.44267 11.3667 7.2124 12.1355C8.11226 10.9837 8.52758 9.49615 8.51482 7.86038C8.50025 5.91389 7.87727 3.82633 6.83169 2.04949C6.65008 1.74983 6.59304 1.39315 6.6724 1.05337C6.75175 0.713599 6.96141 0.416783 7.25793 0.224437Z" fill="#FFF7F7"/>
</svg>
