<svg xmlns="http://www.w3.org/2000/svg" width="29" height="29" viewBox="0 0 29 29" fill="none">
  <g clip-path="url(#clip0_27_290)">
    <path d="M14.5 0C6.49192 0 0 6.49192 0 14.5C0 22.5085 6.49192 29 14.5 29C22.5085 29 29 22.5085 29 14.5C29 6.49192 22.5085 0 14.5 0ZM14.5 27.216C7.5042 27.216 1.8125 21.4958 1.8125 14.4999C1.8125 7.50415 7.5042 1.81244 14.5 1.81244C21.4958 1.81244 27.1875 7.50417 27.1875 14.4999C27.1875 21.4957 21.4958 27.216 14.5 27.216ZM20.8438 13.5938H15.4062V8.15625C15.4062 7.656 15.0002 7.25 14.5 7.25C13.9998 7.25 13.5938 7.656 13.5938 8.15625V13.5938H8.15625C7.656 13.5938 7.25 13.9998 7.25 14.5C7.25 15.0002 7.656 15.4062 8.15625 15.4062H13.5938V20.8438C13.5938 21.344 13.9998 21.75 14.5 21.75C15.0002 21.75 15.4062 21.344 15.4062 20.8438V15.4062H20.8438C21.344 15.4062 21.75 15.0002 21.75 14.5C21.75 13.9998 21.344 13.5938 20.8438 13.5938Z" fill="#FFF7F7"/>
  </g>
  <defs>
    <clipPath id="clip0_27_290">
      <rect width="29" height="29" fill="white"/>
    </clipPath>
  </defs>
</svg>