<svg width="28" height="28" viewBox="0 0 28 28" fill="currentColor" xmlns="http://www.w3.org/2000/svg">
<path d="M18.1684 7.39312V1.39757C18.1684 0.628905 17.5394 0 16.7708 0L11.1805 0C10.4119 0 9.78296 0.628905 9.78296 1.39757V7.39312C9.78296 7.57481 9.85284 7.75649 9.99259 7.88227L13.4865 11.3762C13.766 11.6557 14.1993 11.6557 14.4788 11.3762L17.9727 7.88227C18.0985 7.75649 18.1684 7.58878 18.1684 7.39312ZM7.39312 9.78296H1.39757C0.628905 9.78296 0 10.4119 0 11.1805L0 16.7708C0 17.5394 0.628905 18.1684 1.39757 18.1684H7.39312C7.57481 18.1684 7.75649 18.0985 7.88227 17.9587L11.3762 14.4648C11.6557 14.1853 11.6557 13.752 11.3762 13.4725L7.88227 9.97862C7.81816 9.91468 7.74177 9.86439 7.65771 9.83076C7.57364 9.79713 7.48364 9.78087 7.39312 9.78296ZM9.78296 20.5582V26.5537C9.78296 27.3224 10.4119 27.9513 11.1805 27.9513H16.7708C17.5394 27.9513 18.1684 27.3224 18.1684 26.5537V20.5582C18.1695 20.4665 18.1514 20.3757 18.1153 20.2914C18.0792 20.2072 18.0259 20.1314 17.9587 20.069L14.4648 16.5751C14.1853 16.2956 13.752 16.2956 13.4725 16.5751L9.97862 20.069C9.85284 20.1948 9.78296 20.3625 9.78296 20.5582ZM20.0551 9.99259L16.5612 13.4865C16.2816 13.766 16.2816 14.1993 16.5612 14.4788L20.0551 17.9727C20.1808 18.0985 20.3625 18.1823 20.5442 18.1823H26.5537C27.3224 18.1823 27.9513 17.5534 27.9513 16.7848V11.1945C27.9513 10.4258 27.3224 9.79694 26.5537 9.79694H20.5582C20.4651 9.79015 20.3716 9.80419 20.2846 9.83804C20.1975 9.87188 20.1191 9.92468 20.0551 9.99259Z" fill="white"/>
</svg>
