<svg xmlns="http://www.w3.org/2000/svg" width="42" height="42" viewBox="0 0 42 42" fill="none">
  <path d="M23.45 9.71223L20.6752 1.45283C20.3195 0.393937 19.1621 -0.181379 18.1032 0.174354L10.4021 2.7615C9.34323 3.11723 8.76792 4.27466 9.12365 5.33355L11.8984 13.5929C11.9824 13.8432 12.1628 14.0612 12.4135 14.1698L18.8437 17.366C19.3581 17.6217 19.9549 17.4212 20.2106 16.9068L23.4068 10.4766C23.5219 10.2451 23.5405 9.98176 23.45 9.71223ZM9.71216 17.9912L1.45277 20.7659C0.393875 21.1216 -0.181441 22.279 0.174292 23.3379L2.76144 31.039C3.11717 32.0979 4.27459 32.6732 5.33349 32.3175L13.5929 29.5428C13.8432 29.4587 14.0611 29.2783 14.1697 29.0276L17.3659 22.5975C17.6216 22.083 17.4211 21.4862 16.9067 21.2305L10.4766 18.0343C10.3587 17.9759 10.2301 17.942 10.0988 17.9346C9.96741 17.9271 9.83589 17.9464 9.71216 17.9912ZM17.9911 31.729L20.7658 39.9883C21.1215 41.0472 22.279 41.6226 23.3379 41.2668L31.0389 38.6797C32.0978 38.3239 32.6731 37.1665 32.3174 36.1076L29.5427 27.8482C29.5018 27.7215 29.4349 27.6047 29.3461 27.5053C29.2574 27.406 29.1489 27.3263 29.0275 27.2714L22.5974 24.0752C22.083 23.8195 21.4862 24.02 21.2305 24.5344L18.0343 30.9646C17.9192 31.196 17.9005 31.4594 17.9911 31.729ZM27.2521 12.4201L24.0559 18.8502C23.8002 19.3646 24.0007 19.9614 24.5151 20.2171L30.9452 23.4133C31.1767 23.5284 31.4658 23.5598 31.7161 23.4757L39.9948 20.6946C41.0536 20.3388 41.629 19.1814 41.2732 18.1225L38.6861 10.4214C38.3304 9.36255 37.1729 8.78723 36.114 9.14297L27.8546 11.9177C27.7232 11.9514 27.6009 12.014 27.4967 12.1009C27.3925 12.1878 27.3089 12.2968 27.2521 12.4201Z" fill="#42AAFF"/>
</svg>